<svg width="360" height="640" viewBox="0 0 360 640" fill="none" xmlns="http://www.w3.org/2000/svg">
    <g clip-path="url(#clip0)">
        <rect width="360" height="640" fill="white"/>
        <path d="M335 178.5C423.377 97.5361 375.717 -116.458 374.5 -104C373.283 -91.5426 141.5 -104 141.5 -104L-125.5 -72.5001C-131.167 -7.00006 -142.3 125.7 -141.5 132.5C-140.7 139.3 -107.5 467 -91 630C-25.8333 598.833 108.3 516 123.5 434C142.5 331.5 216.965 286.633 335 178.5Z" fill="#FFEB3B" fill-opacity="0.8"/>
        <path d="M377 172.5C413.8 85.7 392.333 -16 377 -56H-73.5L-181 520C-109.833 527.333 46.1 513.1 100.5 397.5C168.5 253 331 281 377 172.5Z" fill="#448AFF" fill-opacity="0.8"/>
    </g>
    <defs>
        <clipPath id="clip0">
            <rect width="360" height="640" fill="white"/>
        </clipPath>
    </defs>
</svg>
