<svg width="344" height="100" viewBox="0 0 344 100" fill="none" xmlns="http://www.w3.org/2000/svg">
    <rect width="344" height="100" fill="#4F8EF8"/>
    <path fill-rule="evenodd" clip-rule="evenodd" d="M0 0L11.4667 1.66667C22.9333 3.33333 45.8667 6.66667 68.8 20C91.7333 33.3333 114.667 56.6667 137.6 71.6667C160.533 86.6667 183.467 93.3333 206.4 95C229.333 96.6667 252.267 93.3333 275.2 88.3333C298.133 83.3333 321.067 76.6667 332.533 73.3333L344 70V100H332.533C321.067 100 298.133 100 275.2 100C252.267 100 229.333 100 206.4 100C183.467 100 160.533 100 137.6 100C114.667 100 91.7333 100 68.8 100C45.8667 100 22.9333 100 11.4667 100H0V0Z" fill="#448AFF"/>
</svg>
